# xmcd
#
# Track frame offsets:
#	150
#	16972
#	37417
#	52157
#	71443
#	90675
#	112178
#	134127
#	150358
#	167378
#	188550
#	208754
#	221700
#	236325
#	256697
#	275852
#	292136
#
# Disc length: 4130 seconds
#
# Revision: 1
# Processed by: cddbd v1.5.2PL0 Copyright (c) Steve Scherf et al.
# Submitted via: EZCDAudioConverter 8.0.7.1
#
DISCID=07102011
DTITLE=Tom Vanderbilt - Traffic - WhyWeDriveThWayWeDo Rd By David Slavin
DYEAR=2008
DGENRE=Speech
TTITLE0=Disc 3, Track 01
TTITLE1=Disc 3, Track 02
TTITLE2=Disc 3, Track 03
TTITLE3=Disc 3, Track 04
TTITLE4=Disc 3, Track 05
TTITLE5=Disc 3, Track 06
TTITLE6=Disc 3, Track 07
TTITLE7=Disc 3, Track 08
TTITLE8=Disc 3, Track 09
TTITLE9=Disc 3, Track 10
TTITLE10=Disc 3, Track 11
TTITLE11=Disc 3, Track 12
TTITLE12=Disc 3, Track 13
TTITLE13=Disc 3, Track 14
TTITLE14=Disc 3, Track 15
TTITLE15=Disc 3, Track 16
TTITLE16=Disc 3, Track 17
EXTD=
EXTT0=
EXTT1=
EXTT2=
EXTT3=
EXTT4=
EXTT5=
EXTT6=
EXTT7=
EXTT8=
EXTT9=
EXTT10=
EXTT11=
EXTT12=
EXTT13=
EXTT14=
EXTT15=
EXTT16=
PLAYORDER=
